999
"DXF R12 Output" (www.mydxf.blogspot.com)
 0 
SECTION
 2 
HEADER
 9 
$ACADVER
 1 
AC1009
 9 
$EXTMIN
 10 
 0 
 20 
 0 
 9 
$EXTMAX
 10 
 8.5 
 20 
 11 
 0 
ENDSEC
 0 
SECTION
 2 
ENTITIES
0
POLYLINE
8
Layer 1
62
7
70
1
10
0.000000
20
0.000000
66
1
0
VERTEX
8
Layer 1
10
1.164983
20
0.376675
70
0
0
VERTEX
8
Layer 1
10
1.296121
20
0.362004
70
0
0
VERTEX
8
Layer 1
10
1.262617
20
0.050409
70
0
0
VERTEX
8
Layer 1
10
1.218892
20
0.055312
70
0
0
VERTEX
8
Layer 1
10
1.228427
20
0.144040
70
0
0
VERTEX
8
Layer 1
10
1.140972
20
0.153806
70
0
0
VERTEX
8
Layer 1
10
1.082168
20
0.187003
70
0
0
VERTEX
8
Layer 1
10
1.062581
20
0.243716
70
0
0
VERTEX
8
Layer 1
10
1.063139
20
0.252739
70
0
0
VERTEX
8
Layer 1
10
1.067910
20
0.297320
70
0
0
VERTEX
8
Layer 1
10
1.093723
20
0.351231
70
0
0
VERTEX
8
Layer 1
10
1.100467
20
0.357275
70
0
0
VERTEX
8
Layer 1
10
1.164983
20
0.376675
70
0
0
VERTEX
8
Layer 1
10
1.164983
20
0.376675
70
0
0
SEQEND
8
Layer 1
0
POLYLINE
8
Layer 1
62
7
70
1
10
0.000000
20
0.000000
66
1
0
VERTEX
8
Layer 1
10
2.106956
20
0.366208
70
0
0
VERTEX
8
Layer 1
10
1.939782
20
0.366208
70
0
0
VERTEX
8
Layer 1
10
1.863196
20
0.339012
70
0
0
VERTEX
8
Layer 1
10
1.863495
20
0.340282
70
0
0
VERTEX
8
Layer 1
10
1.871142
20
0.375318
70
0
0
VERTEX
8
Layer 1
10
1.723896
20
0.408777
70
0
0
VERTEX
8
Layer 1
10
1.631072
20
0.403477
70
0
0
VERTEX
8
Layer 1
10
1.570938
20
0.337874
70
0
0
VERTEX
8
Layer 1
10
1.568877
20
0.320531
70
0
0
VERTEX
8
Layer 1
10
1.534558
20
0.445520
70
0
0
VERTEX
8
Layer 1
10
1.500667
20
0.435798
70
0
0
VERTEX
8
Layer 1
10
1.373609
20
0.399492
70
0
0
VERTEX
8
Layer 1
10
1.334350
20
0.388325
70
0
0
VERTEX
8
Layer 1
10
1.334951
20
0.393755
70
0
0
VERTEX
8
Layer 1
10
1.168806
20
0.412368
70
0
0
VERTEX
8
Layer 1
10
1.078475
20
0.385259
70
0
0
VERTEX
8
Layer 1
10
1.032945
20
0.301218
70
0
0
VERTEX
8
Layer 1
10
1.028177
20
0.256636
70
0
0
VERTEX
8
Layer 1
10
1.027532
20
0.239073
70
0
0
VERTEX
8
Layer 1
10
0.985696
20
0.272708
70
0
0
VERTEX
8
Layer 1
10
1.042653
20
0.346326
70
0
0
VERTEX
8
Layer 1
10
1.033202
20
0.427433
70
0
0
VERTEX
8
Layer 1
10
0.919632
20
0.413725
70
0
0
VERTEX
8
Layer 1
10
0.923670
20
0.379084
70
0
0
VERTEX
8
Layer 1
10
0.896696
20
0.344180
70
0
0
VERTEX
8
Layer 1
10
0.862504
20
0.371683
70
0
0
VERTEX
8
Layer 1
10
0.858511
20
0.406324
70
0
0
VERTEX
8
Layer 1
10
0.744941
20
0.392617
70
0
0
VERTEX
8
Layer 1
10
0.746574
20
0.378383
70
0
0
VERTEX
8
Layer 1
10
0.739742
20
0.384602
70
0
0
VERTEX
8
Layer 1
10
0.649670
20
0.412543
70
0
0
VERTEX
8
Layer 1
10
0.605900
20
0.408076
70
0
0
VERTEX
8
Layer 1
10
0.523041
20
0.362486
70
0
0
VERTEX
8
Layer 1
10
0.495638
20
0.270650
70
0
0
VERTEX
8
Layer 1
10
0.500020
20
0.226024
70
0
0
VERTEX
8
Layer 1
10
0.501779
20
0.213541
70
0
0
VERTEX
8
Layer 1
10
0.471971
20
0.219716
70
0
0
VERTEX
8
Layer 1
10
0.463335
20
0.221555
70
0
0
VERTEX
8
Layer 1
10
0.516254
20
0.485154
70
0
0
VERTEX
8
Layer 1
10
0.361151
20
0.517518
70
0
0
VERTEX
8
Layer 1
10
0.354062
20
0.482351
70
0
0
VERTEX
8
Layer 1
10
0.338214
20
0.403259
70
0
0
VERTEX
8
Layer 1
10
0.372705
20
0.396076
70
0
0
VERTEX
8
Layer 1
10
0.381251
20
0.394324
70
0
0
VERTEX
8
Layer 1
10
0.351313
20
0.244899
70
0
0
VERTEX
8
Layer 1
10
0.342680
20
0.246693
70
0
0
VERTEX
8
Layer 1
10
0.308231
20
0.253921
70
0
0
VERTEX
8
Layer 1
10
0.307758
20
0.251598
70
0
0
VERTEX
8
Layer 1
10
0.276272
20
0.434440
70
0
0
VERTEX
8
Layer 1
10
0.111675
20
0.404966
70
0
0
VERTEX
8
Layer 1
10
0.031910
20
0.353114
70
0
0
VERTEX
8
Layer 1
10
0.011636
20
0.259570
70
0
0
VERTEX
8
Layer 1
10
0.019282
20
0.215382
70
0
0
VERTEX
8
Layer 1
10
0.069409
20
0.134187
70
0
0
VERTEX
8
Layer 1
10
0.069881
20
0.133835
70
0
0
VERTEX
8
Layer 1
10
0.161888
20
0.113428
70
0
0
VERTEX
8
Layer 1
10
0.210941
20
0.139574
70
0
0
VERTEX
8
Layer 1
10
0.213862
20
0.122757
70
0
0
VERTEX
8
Layer 1
10
0.291822
20
0.136682
70
0
0
VERTEX
8
Layer 1
10
0.295989
20
0.137470
70
0
0
VERTEX
8
Layer 1
10
0.319786
20
0.132478
70
0
0
VERTEX
8
Layer 1
10
0.483525
20
0.098320
70
0
0
VERTEX
8
Layer 1
10
0.504443
20
0.202680
70
0
0
VERTEX
8
Layer 1
10
0.544734
20
0.141545
70
0
0
VERTEX
8
Layer 1
10
0.634806
20
0.113560
70
0
0
VERTEX
8
Layer 1
10
0.766116
20
0.126961
70
0
0
VERTEX
8
Layer 1
10
0.775694
20
0.127967
70
0
0
VERTEX
8
Layer 1
10
0.779131
20
0.098669
70
0
0
VERTEX
8
Layer 1
10
0.814053
20
0.102918
70
0
0
VERTEX
8
Layer 1
10
0.857736
20
0.108173
70
0
0
VERTEX
8
Layer 1
10
0.892658
20
0.112420
70
0
0
VERTEX
8
Layer 1
10
0.888621
20
0.147107
70
0
0
VERTEX
8
Layer 1
10
0.915595
20
0.181965
70
0
0
VERTEX
8
Layer 1
10
0.949787
20
0.154507
70
0
0
VERTEX
8
Layer 1
10
0.953824
20
0.119823
70
0
0
VERTEX
8
Layer 1
10
0.988789
20
0.124027
70
0
0
VERTEX
8
Layer 1
10
1.032429
20
0.129327
70
0
0
VERTEX
8
Layer 1
10
1.067394
20
0.133531
70
0
0
VERTEX
8
Layer 1
10
1.065116
20
0.152930
70
0
0
VERTEX
8
Layer 1
10
1.137149
20
0.118158
70
0
0
VERTEX
8
Layer 1
10
1.189597
20
0.112290
70
0
0
VERTEX
8
Layer 1
10
1.183927
20
0.059212
70
0
0
VERTEX
8
Layer 1
10
1.180061
20
0.023562
70
0
0
VERTEX
8
Layer 1
10
1.293758
20
0.010862
70
0
0
VERTEX
8
Layer 1
10
1.311456
20
0.175615
70
0
0
VERTEX
8
Layer 1
10
1.345648
20
0.131472
70
0
0
VERTEX
8
Layer 1
10
1.430780
20
0.108480
70
0
0
VERTEX
8
Layer 1
10
1.468150
20
0.138740
70
0
0
VERTEX
8
Layer 1
10
1.515486
20
0.132655
70
0
0
VERTEX
8
Layer 1
10
1.543104
20
0.146667
70
0
0
VERTEX
8
Layer 1
10
1.558955
20
0.143032
70
0
0
VERTEX
8
Layer 1
10
1.671450
20
0.117457
70
0
0
VERTEX
8
Layer 1
10
1.764660
20
0.122625
70
0
0
VERTEX
8
Layer 1
10
1.764917
20
0.122757
70
0
0
VERTEX
8
Layer 1
10
1.818823
20
0.171411
70
0
0
VERTEX
8
Layer 1
10
1.852242
20
0.106945
70
0
0
VERTEX
8
Layer 1
10
1.852671
20
0.106551
70
0
0
VERTEX
8
Layer 1
10
1.939782
20
0.070248
70
0
0
VERTEX
8
Layer 1
10
1.992572
20
0.087327
70
0
0
VERTEX
8
Layer 1
10
1.992572
20
0.070248
70
0
0
VERTEX
8
Layer 1
10
2.106956
20
0.070248
70
0
0
VERTEX
8
Layer 1
10
2.106956
20
0.366208
70
0
0
VERTEX
8
Layer 1
10
2.106956
20
0.366208
70
0
0
SEQEND
8
Layer 1
0
POLYLINE
8
Layer 1
62
7
70
1
10
0.000000
20
0.000000
66
1
0
VERTEX
8
Layer 1
10
1.163954
20
0.366865
70
0
0
VERTEX
8
Layer 1
10
1.106523
20
0.349567
70
0
0
VERTEX
8
Layer 1
10
1.100425
20
0.344180
70
0
0
VERTEX
8
Layer 1
10
1.077530
20
0.296225
70
0
0
VERTEX
8
Layer 1
10
1.072762
20
0.251686
70
0
0
VERTEX
8
Layer 1
10
1.072246
20
0.243584
70
0
0
VERTEX
8
Layer 1
10
1.089730
20
0.193178
70
0
0
VERTEX
8
Layer 1
10
1.142046
20
0.163616
70
0
0
VERTEX
8
Layer 1
10
1.229501
20
0.153851
70
0
0
VERTEX
8
Layer 1
10
1.239122
20
0.152755
70
0
0
VERTEX
8
Layer 1
10
1.238047
20
0.142945
70
0
0
VERTEX
8
Layer 1
10
1.229544
20
0.064072
70
0
0
VERTEX
8
Layer 1
10
1.254071
20
0.061313
70
0
0
VERTEX
8
Layer 1
10
1.285469
20
0.353289
70
0
0
VERTEX
8
Layer 1
10
1.163954
20
0.366865
70
0
0
VERTEX
8
Layer 1
10
1.163954
20
0.366865
70
0
0
SEQEND
8
Layer 1
0
POLYLINE
8
Layer 1
62
7
70
1
10
0.000000
20
0.000000
66
1
0
VERTEX
8
Layer 1
10
2.071735
20
0.330341
70
0
0
VERTEX
8
Layer 1
10
2.071735
20
0.106115
70
0
0
VERTEX
8
Layer 1
10
2.027751
20
0.106115
70
0
0
VERTEX
8
Layer 1
10
2.027751
20
0.167995
70
0
0
VERTEX
8
Layer 1
10
2.000475
20
0.139748
70
0
0
VERTEX
8
Layer 1
10
1.939782
20
0.106115
70
0
0
VERTEX
8
Layer 1
10
1.877328
20
0.132128
70
0
0
VERTEX
8
Layer 1
10
1.851811
20
0.195806
70
0
0
VERTEX
8
Layer 1
10
1.851811
20
0.240650
70
0
0
VERTEX
8
Layer 1
10
1.877328
20
0.303889
70
0
0
VERTEX
8
Layer 1
10
1.939782
20
0.330341
70
0
0
VERTEX
8
Layer 1
10
2.071735
20
0.330341
70
0
0
VERTEX
8
Layer 1
10
2.071735
20
0.330341
70
0
0
SEQEND
8
Layer 1
0
POLYLINE
8
Layer 1
62
7
70
1
10
0.000000
20
0.000000
66
1
0
VERTEX
8
Layer 1
10
1.005968
20
0.356880
70
0
0
VERTEX
8
Layer 1
10
0.936298
20
0.266708
70
0
0
VERTEX
8
Layer 1
10
1.024741
20
0.195673
70
0
0
VERTEX
8
Layer 1
10
1.028304
20
0.164931
70
0
0
VERTEX
8
Layer 1
10
0.984622
20
0.159674
70
0
0
VERTEX
8
Layer 1
10
0.983032
20
0.173470
70
0
0
VERTEX
8
Layer 1
10
0.909753
20
0.232329
70
0
0
VERTEX
8
Layer 1
10
0.851981
20
0.157616
70
0
0
VERTEX
8
Layer 1
10
0.853571
20
0.143820
70
0
0
VERTEX
8
Layer 1
10
0.809928
20
0.138523
70
0
0
VERTEX
8
Layer 1
10
0.806322
20
0.169265
70
0
0
VERTEX
8
Layer 1
10
0.876034
20
0.259438
70
0
0
VERTEX
8
Layer 1
10
0.787592
20
0.330473
70
0
0
VERTEX
8
Layer 1
10
0.784028
20
0.361216
70
0
0
VERTEX
8
Layer 1
10
0.827711
20
0.366471
70
0
0
VERTEX
8
Layer 1
10
0.829301
20
0.352676
70
0
0
VERTEX
8
Layer 1
10
0.902580
20
0.293773
70
0
0
VERTEX
8
Layer 1
10
0.960352
20
0.368530
70
0
0
VERTEX
8
Layer 1
10
0.958719
20
0.382325
70
0
0
VERTEX
8
Layer 1
10
1.002404
20
0.387580
70
0
0
VERTEX
8
Layer 1
10
1.005968
20
0.356880
70
0
0
VERTEX
8
Layer 1
10
1.005968
20
0.356880
70
0
0
SEQEND
8
Layer 1
0
POLYLINE
8
Layer 1
62
7
70
1
10
0.000000
20
0.000000
66
1
0
VERTEX
8
Layer 1
10
0.474720
20
0.457169
70
0
0
VERTEX
8
Layer 1
10
0.421843
20
0.193573
70
0
0
VERTEX
8
Layer 1
10
0.464925
20
0.184593
70
0
0
VERTEX
8
Layer 1
10
0.456120
20
0.140669
70
0
0
VERTEX
8
Layer 1
10
0.326829
20
0.167646
70
0
0
VERTEX
8
Layer 1
10
0.335634
20
0.211572
70
0
0
VERTEX
8
Layer 1
10
0.378719
20
0.202550
70
0
0
VERTEX
8
Layer 1
10
0.422830
20
0.422221
70
0
0
VERTEX
8
Layer 1
10
0.379748
20
0.431243
70
0
0
VERTEX
8
Layer 1
10
0.388553
20
0.475169
70
0
0
VERTEX
8
Layer 1
10
0.474720
20
0.457169
70
0
0
VERTEX
8
Layer 1
10
0.474720
20
0.457169
70
0
0
SEQEND
8
Layer 1
0
POLYLINE
8
Layer 1
62
7
70
1
10
0.000000
20
0.000000
66
1
0
VERTEX
8
Layer 1
10
2.027751
20
0.285496
70
0
0
VERTEX
8
Layer 1
10
1.939782
20
0.285496
70
0
0
VERTEX
8
Layer 1
10
1.908554
20
0.272051
70
0
0
VERTEX
8
Layer 1
10
1.895795
20
0.240650
70
0
0
VERTEX
8
Layer 1
10
1.895795
20
0.195806
70
0
0
VERTEX
8
Layer 1
10
1.908554
20
0.163966
70
0
0
VERTEX
8
Layer 1
10
1.939782
20
0.150959
70
0
0
VERTEX
8
Layer 1
10
1.983767
20
0.173382
70
0
0
VERTEX
8
Layer 1
10
2.027751
20
0.218229
70
0
0
VERTEX
8
Layer 1
10
2.027751
20
0.285496
70
0
0
VERTEX
8
Layer 1
10
2.027751
20
0.285496
70
0
0
SEQEND
8
Layer 1
0
POLYLINE
8
Layer 1
62
7
70
1
10
0.000000
20
0.000000
66
1
0
VERTEX
8
Layer 1
10
1.542805
20
0.282518
70
0
0
VERTEX
8
Layer 1
10
1.545252
20
0.272577
70
0
0
VERTEX
8
Layer 1
10
1.543061
20
0.208548
70
0
0
VERTEX
8
Layer 1
10
1.505993
20
0.167207
70
0
0
VERTEX
8
Layer 1
10
1.503157
20
0.166593
70
0
0
VERTEX
8
Layer 1
10
1.454320
20
0.199002
70
0
0
VERTEX
8
Layer 1
10
1.449251
20
0.197557
70
0
0
VERTEX
8
Layer 1
10
1.421287
20
0.142990
70
0
0
VERTEX
8
Layer 1
10
1.414717
20
0.141632
70
0
0
VERTEX
8
Layer 1
10
1.368585
20
0.158669
70
0
0
VERTEX
8
Layer 1
10
1.331043
20
0.221994
70
0
0
VERTEX
8
Layer 1
10
1.298399
20
0.340764
70
0
0
VERTEX
8
Layer 1
10
1.340751
20
0.352851
70
0
0
VERTEX
8
Layer 1
10
1.373395
20
0.234125
70
0
0
VERTEX
8
Layer 1
10
1.389889
20
0.197383
70
0
0
VERTEX
8
Layer 1
10
1.407285
20
0.185381
70
0
0
VERTEX
8
Layer 1
10
1.409561
20
0.185775
70
0
0
VERTEX
8
Layer 1
10
1.419956
20
0.205966
70
0
0
VERTEX
8
Layer 1
10
1.415747
20
0.246211
70
0
0
VERTEX
8
Layer 1
10
1.383102
20
0.364982
70
0
0
VERTEX
8
Layer 1
10
1.425454
20
0.377070
70
0
0
VERTEX
8
Layer 1
10
1.458098
20
0.258300
70
0
0
VERTEX
8
Layer 1
10
1.461451
20
0.247614
70
0
0
VERTEX
8
Layer 1
10
1.474592
20
0.221600
70
0
0
VERTEX
8
Layer 1
10
1.491862
20
0.209995
70
0
0
VERTEX
8
Layer 1
10
1.494137
20
0.210389
70
0
0
VERTEX
8
Layer 1
10
1.504660
20
0.230183
70
0
0
VERTEX
8
Layer 1
10
1.500450
20
0.270430
70
0
0
VERTEX
8
Layer 1
10
1.467806
20
0.389157
70
0
0
VERTEX
8
Layer 1
10
1.510203
20
0.401288
70
0
0
VERTEX
8
Layer 1
10
1.542805
20
0.282518
70
0
0
VERTEX
8
Layer 1
10
1.542805
20
0.282518
70
0
0
SEQEND
8
Layer 1
0
POLYLINE
8
Layer 1
62
7
70
1
10
0.000000
20
0.000000
66
1
0
VERTEX
8
Layer 1
10
0.285766
20
0.172025
70
0
0
VERTEX
8
Layer 1
10
0.242426
20
0.164273
70
0
0
VERTEX
8
Layer 1
10
0.231945
20
0.225235
70
0
0
VERTEX
8
Layer 1
10
0.209867
20
0.192607
70
0
0
VERTEX
8
Layer 1
10
0.155789
20
0.148771
70
0
0
VERTEX
8
Layer 1
10
0.146897
20
0.147588
70
0
0
VERTEX
8
Layer 1
10
0.089855
20
0.163355
70
0
0
VERTEX
8
Layer 1
10
0.053903
20
0.221600
70
0
0
VERTEX
8
Layer 1
10
0.046300
20
0.265744
70
0
0
VERTEX
8
Layer 1
10
0.055964
20
0.324911
70
0
0
VERTEX
8
Layer 1
10
0.060732
20
0.332531
70
0
0
VERTEX
8
Layer 1
10
0.117732
20
0.369625
70
0
0
VERTEX
8
Layer 1
10
0.247709
20
0.392879
70
0
0
VERTEX
8
Layer 1
10
0.285766
20
0.172025
70
0
0
VERTEX
8
Layer 1
10
0.285766
20
0.172025
70
0
0
SEQEND
8
Layer 1
0
POLYLINE
8
Layer 1
62
7
70
1
10
0.000000
20
0.000000
66
1
0
VERTEX
8
Layer 1
10
1.643746
20
0.370019
70
0
0
VERTEX
8
Layer 1
10
1.716249
20
0.373741
70
0
0
VERTEX
8
Layer 1
10
1.829134
20
0.348078
70
0
0
VERTEX
8
Layer 1
10
1.819553
20
0.304327
70
0
0
VERTEX
8
Layer 1
10
1.706671
20
0.329991
70
0
0
VERTEX
8
Layer 1
10
1.667542
20
0.332443
70
0
0
VERTEX
8
Layer 1
10
1.648212
20
0.320312
70
0
0
VERTEX
8
Layer 1
10
1.660756
20
0.301393
70
0
0
VERTEX
8
Layer 1
10
1.697094
20
0.286240
70
0
0
VERTEX
8
Layer 1
10
1.707830
20
0.283788
70
0
0
VERTEX
8
Layer 1
10
1.717668
20
0.281248
70
0
0
VERTEX
8
Layer 1
10
1.772304
20
0.248884
70
0
0
VERTEX
8
Layer 1
10
1.790044
20
0.196155
70
0
0
VERTEX
8
Layer 1
10
1.788155
20
0.189585
70
0
0
VERTEX
8
Layer 1
10
1.751989
20
0.156129
70
0
0
VERTEX
8
Layer 1
10
1.679097
20
0.152448
70
0
0
VERTEX
8
Layer 1
10
1.566644
20
0.178026
70
0
0
VERTEX
8
Layer 1
10
1.576179
20
0.221819
70
0
0
VERTEX
8
Layer 1
10
1.688675
20
0.196242
70
0
0
VERTEX
8
Layer 1
10
1.699541
20
0.194184
70
0
0
VERTEX
8
Layer 1
10
1.728320
20
0.194096
70
0
0
VERTEX
8
Layer 1
10
1.746404
20
0.203733
70
0
0
VERTEX
8
Layer 1
10
1.747134
20
0.205921
70
0
0
VERTEX
8
Layer 1
10
1.735106
20
0.225190
70
0
0
VERTEX
8
Layer 1
10
1.698252
20
0.239994
70
0
0
VERTEX
8
Layer 1
10
1.687516
20
0.242446
70
0
0
VERTEX
8
Layer 1
10
1.623471
20
0.277219
70
0
0
VERTEX
8
Layer 1
10
1.605259
20
0.330078
70
0
0
VERTEX
8
Layer 1
10
1.636057
20
0.366603
70
0
0
VERTEX
8
Layer 1
10
1.643746
20
0.370019
70
0
0
VERTEX
8
Layer 1
10
1.643746
20
0.370019
70
0
0
SEQEND
8
Layer 1
0
POLYLINE
8
Layer 1
62
7
70
1
10
0.000000
20
0.000000
66
1
0
VERTEX
8
Layer 1
10
0.653192
20
0.376851
70
0
0
VERTEX
8
Layer 1
10
0.717494
20
0.356837
70
0
0
VERTEX
8
Layer 1
10
0.724193
20
0.350706
70
0
0
VERTEX
8
Layer 1
10
0.749492
20
0.296532
70
0
0
VERTEX
8
Layer 1
10
0.753874
20
0.251905
70
0
0
VERTEX
8
Layer 1
10
0.578796
20
0.234038
70
0
0
VERTEX
8
Layer 1
10
0.594603
20
0.203688
70
0
0
VERTEX
8
Layer 1
10
0.622521
20
0.193660
70
0
0
VERTEX
8
Layer 1
10
0.626948
20
0.193877
70
0
0
VERTEX
8
Layer 1
10
0.758255
20
0.207278
70
0
0
VERTEX
8
Layer 1
10
0.762637
20
0.162653
70
0
0
VERTEX
8
Layer 1
10
0.631327
20
0.149295
70
0
0
VERTEX
8
Layer 1
10
0.622479
20
0.148771
70
0
0
VERTEX
8
Layer 1
10
0.567025
20
0.169310
70
0
0
VERTEX
8
Layer 1
10
0.535027
20
0.229572
70
0
0
VERTEX
8
Layer 1
10
0.530645
20
0.274197
70
0
0
VERTEX
8
Layer 1
10
0.544906
20
0.332399
70
0
0
VERTEX
8
Layer 1
10
0.550274
20
0.339757
70
0
0
VERTEX
8
Layer 1
10
0.600659
20
0.371070
70
0
0
VERTEX
8
Layer 1
10
0.609422
20
0.372384
70
0
0
VERTEX
8
Layer 1
10
0.653192
20
0.376851
70
0
0
VERTEX
8
Layer 1
10
0.653192
20
0.376851
70
0
0
SEQEND
8
Layer 1
0
POLYLINE
8
Layer 1
62
7
70
1
10
0.000000
20
0.000000
66
1
0
VERTEX
8
Layer 1
10
0.969501
20
0.373698
70
0
0
VERTEX
8
Layer 1
10
0.969975
20
0.369712
70
0
0
VERTEX
8
Layer 1
10
0.970448
20
0.365639
70
0
0
VERTEX
8
Layer 1
10
0.967956
20
0.362442
70
0
0
VERTEX
8
Layer 1
10
0.910184
20
0.287686
70
0
0
VERTEX
8
Layer 1
10
0.904212
20
0.279934
70
0
0
VERTEX
8
Layer 1
10
0.896611
20
0.286021
70
0
0
VERTEX
8
Layer 1
10
0.823332
20
0.344925
70
0
0
VERTEX
8
Layer 1
10
0.820194
20
0.347465
70
0
0
VERTEX
8
Layer 1
10
0.819723
20
0.351538
70
0
0
VERTEX
8
Layer 1
10
0.819250
20
0.355523
70
0
0
VERTEX
8
Layer 1
10
0.794768
20
0.352589
70
0
0
VERTEX
8
Layer 1
10
0.796699
20
0.335728
70
0
0
VERTEX
8
Layer 1
10
0.882048
20
0.267190
70
0
0
VERTEX
8
Layer 1
10
0.889650
20
0.261102
70
0
0
VERTEX
8
Layer 1
10
0.883638
20
0.253350
70
0
0
VERTEX
8
Layer 1
10
0.816416
20
0.166418
70
0
0
VERTEX
8
Layer 1
10
0.818392
20
0.149514
70
0
0
VERTEX
8
Layer 1
10
0.842832
20
0.152493
70
0
0
VERTEX
8
Layer 1
10
0.842403
20
0.156478
70
0
0
VERTEX
8
Layer 1
10
0.841930
20
0.160508
70
0
0
VERTEX
8
Layer 1
10
0.844422
20
0.163704
70
0
0
VERTEX
8
Layer 1
10
0.902194
20
0.238417
70
0
0
VERTEX
8
Layer 1
10
0.908165
20
0.246169
70
0
0
VERTEX
8
Layer 1
10
0.915767
20
0.240081
70
0
0
VERTEX
8
Layer 1
10
0.989046
20
0.181222
70
0
0
VERTEX
8
Layer 1
10
0.992181
20
0.178682
70
0
0
VERTEX
8
Layer 1
10
0.992655
20
0.174610
70
0
0
VERTEX
8
Layer 1
10
0.993083
20
0.170668
70
0
0
VERTEX
8
Layer 1
10
1.017568
20
0.173602
70
0
0
VERTEX
8
Layer 1
10
1.015634
20
0.190461
70
0
0
VERTEX
8
Layer 1
10
0.930329
20
0.258956
70
0
0
VERTEX
8
Layer 1
10
0.922725
20
0.265044
70
0
0
VERTEX
8
Layer 1
10
0.928739
20
0.272795
70
0
0
VERTEX
8
Layer 1
10
0.995920
20
0.359771
70
0
0
VERTEX
8
Layer 1
10
0.993943
20
0.376632
70
0
0
VERTEX
8
Layer 1
10
0.969501
20
0.373698
70
0
0
VERTEX
8
Layer 1
10
0.969501
20
0.373698
70
0
0
SEQEND
8
Layer 1
0
POLYLINE
8
Layer 1
62
7
70
1
10
0.000000
20
0.000000
66
1
0
VERTEX
8
Layer 1
10
1.479704
20
0.382325
70
0
0
VERTEX
8
Layer 1
10
1.509771
20
0.273102
70
0
0
VERTEX
8
Layer 1
10
1.514283
20
0.229265
70
0
0
VERTEX
8
Layer 1
10
1.496757
20
0.200886
70
0
0
VERTEX
8
Layer 1
10
1.496286
20
0.200753
70
0
0
VERTEX
8
Layer 1
10
1.495770
20
0.200666
70
0
0
VERTEX
8
Layer 1
10
1.493494
20
0.200272
70
0
0
VERTEX
8
Layer 1
10
1.492933
20
0.200184
70
0
0
VERTEX
8
Layer 1
10
1.492375
20
0.200140
70
0
0
VERTEX
8
Layer 1
10
1.467033
20
0.215469
70
0
0
VERTEX
8
Layer 1
10
1.466819
20
0.215731
70
0
0
VERTEX
8
Layer 1
10
1.452386
20
0.244285
70
0
0
VERTEX
8
Layer 1
10
1.452256
20
0.244592
70
0
0
VERTEX
8
Layer 1
10
1.448907
20
0.255279
70
0
0
VERTEX
8
Layer 1
10
1.448777
20
0.255628
70
0
0
VERTEX
8
Layer 1
10
1.418755
20
0.364938
70
0
0
VERTEX
8
Layer 1
10
1.395001
20
0.358150
70
0
0
VERTEX
8
Layer 1
10
1.425068
20
0.248884
70
0
0
VERTEX
8
Layer 1
10
1.429579
20
0.205132
70
0
0
VERTEX
8
Layer 1
10
1.425197
20
0.187527
70
0
0
VERTEX
8
Layer 1
10
1.412225
20
0.176274
70
0
0
VERTEX
8
Layer 1
10
1.411709
20
0.176142
70
0
0
VERTEX
8
Layer 1
10
1.411193
20
0.176055
70
0
0
VERTEX
8
Layer 1
10
1.408918
20
0.175660
70
0
0
VERTEX
8
Layer 1
10
1.408359
20
0.175573
70
0
0
VERTEX
8
Layer 1
10
1.407759
20
0.175528
70
0
0
VERTEX
8
Layer 1
10
1.382242
20
0.191337
70
0
0
VERTEX
8
Layer 1
10
1.382115
20
0.191514
70
0
0
VERTEX
8
Layer 1
10
1.364116
20
0.231453
70
0
0
VERTEX
8
Layer 1
10
1.334049
20
0.340720
70
0
0
VERTEX
8
Layer 1
10
1.310297
20
0.333932
70
0
0
VERTEX
8
Layer 1
10
1.340364
20
0.224666
70
0
0
VERTEX
8
Layer 1
10
1.374898
20
0.166156
70
0
0
VERTEX
8
Layer 1
10
1.413127
20
0.151398
70
0
0
VERTEX
8
Layer 1
10
1.418840
20
0.152581
70
0
0
VERTEX
8
Layer 1
10
1.430952
20
0.164405
70
0
0
VERTEX
8
Layer 1
10
1.439673
20
0.198695
70
0
0
VERTEX
8
Layer 1
10
1.440403
20
0.205264
70
0
0
VERTEX
8
Layer 1
10
1.446674
20
0.207061
70
0
0
VERTEX
8
Layer 1
10
1.451743
20
0.208506
70
0
0
VERTEX
8
Layer 1
10
1.457971
20
0.210302
70
0
0
VERTEX
8
Layer 1
10
1.461964
20
0.205090
70
0
0
VERTEX
8
Layer 1
10
1.485546
20
0.181264
70
0
0
VERTEX
8
Layer 1
10
1.498389
20
0.176184
70
0
0
VERTEX
8
Layer 1
10
1.501696
20
0.176361
70
0
0
VERTEX
8
Layer 1
10
1.503416
20
0.176756
70
0
0
VERTEX
8
Layer 1
10
1.533870
20
0.211614
70
0
0
VERTEX
8
Layer 1
10
1.535801
20
0.270518
70
0
0
VERTEX
8
Layer 1
10
1.533441
20
0.280109
70
0
0
VERTEX
8
Layer 1
10
1.503501
20
0.389157
70
0
0
VERTEX
8
Layer 1
10
1.479704
20
0.382325
70
0
0
VERTEX
8
Layer 1
10
1.479704
20
0.382325
70
0
0
SEQEND
8
Layer 1
0
POLYLINE
8
Layer 1
62
7
70
1
10
0.000000
20
0.000000
66
1
0
VERTEX
8
Layer 1
10
0.391175
20
0.438951
70
0
0
VERTEX
8
Layer 1
10
0.424807
20
0.431900
70
0
0
VERTEX
8
Layer 1
10
0.434257
20
0.429885
70
0
0
VERTEX
8
Layer 1
10
0.388209
20
0.200579
70
0
0
VERTEX
8
Layer 1
10
0.386278
20
0.190900
70
0
0
VERTEX
8
Layer 1
10
0.376785
20
0.192871
70
0
0
VERTEX
8
Layer 1
10
0.343151
20
0.199923
70
0
0
VERTEX
8
Layer 1
10
0.338256
20
0.175353
70
0
0
VERTEX
8
Layer 1
10
0.448603
20
0.152361
70
0
0
VERTEX
8
Layer 1
10
0.453501
20
0.176885
70
0
0
VERTEX
8
Layer 1
10
0.410461
20
0.185863
70
0
0
VERTEX
8
Layer 1
10
0.463293
20
0.449505
70
0
0
VERTEX
8
Layer 1
10
0.396070
20
0.463519
70
0
0
VERTEX
8
Layer 1
10
0.391175
20
0.438951
70
0
0
VERTEX
8
Layer 1
10
0.391175
20
0.438951
70
0
0
SEQEND
8
Layer 1
0
POLYLINE
8
Layer 1
62
7
70
1
10
0.000000
20
0.000000
66
1
0
VERTEX
8
Layer 1
10
0.119407
20
0.359902
70
0
0
VERTEX
8
Layer 1
10
0.068679
20
0.326881
70
0
0
VERTEX
8
Layer 1
10
0.064340
20
0.320049
70
0
0
VERTEX
8
Layer 1
10
0.055835
20
0.267453
70
0
0
VERTEX
8
Layer 1
10
0.063438
20
0.223309
70
0
0
VERTEX
8
Layer 1
10
0.095310
20
0.171498
70
0
0
VERTEX
8
Layer 1
10
0.145909
20
0.157399
70
0
0
VERTEX
8
Layer 1
10
0.154113
20
0.158492
70
0
0
VERTEX
8
Layer 1
10
0.201964
20
0.198258
70
0
0
VERTEX
8
Layer 1
10
0.237401
20
0.250680
70
0
0
VERTEX
8
Layer 1
10
0.250287
20
0.175703
70
0
0
VERTEX
8
Layer 1
10
0.274555
20
0.180084
70
0
0
VERTEX
8
Layer 1
10
0.239849
20
0.381493
70
0
0
VERTEX
8
Layer 1
10
0.119407
20
0.359902
70
0
0
VERTEX
8
Layer 1
10
0.119407
20
0.359902
70
0
0
SEQEND
8
Layer 1
0
POLYLINE
8
Layer 1
62
7
70
1
10
0.000000
20
0.000000
66
1
0
VERTEX
8
Layer 1
10
1.714146
20
0.364106
70
0
0
VERTEX
8
Layer 1
10
1.647482
20
0.360909
70
0
0
VERTEX
8
Layer 1
10
1.640049
20
0.357625
70
0
0
VERTEX
8
Layer 1
10
1.614708
20
0.327932
70
0
0
VERTEX
8
Layer 1
10
1.630472
20
0.284050
70
0
0
VERTEX
8
Layer 1
10
1.689661
20
0.252080
70
0
0
VERTEX
8
Layer 1
10
1.700401
20
0.249627
70
0
0
VERTEX
8
Layer 1
10
1.731757
20
0.238549
70
0
0
VERTEX
8
Layer 1
10
1.740432
20
0.233424
70
0
0
VERTEX
8
Layer 1
10
1.740692
20
0.233249
70
0
0
VERTEX
8
Layer 1
10
1.756585
20
0.203775
70
0
0
VERTEX
8
Layer 1
10
1.756498
20
0.203251
70
0
0
VERTEX
8
Layer 1
10
1.756326
20
0.202724
70
0
0
VERTEX
8
Layer 1
10
1.755596
20
0.200534
70
0
0
VERTEX
8
Layer 1
10
1.755424
20
0.200052
70
0
0
VERTEX
8
Layer 1
10
1.755167
20
0.199528
70
0
0
VERTEX
8
Layer 1
10
1.729780
20
0.184331
70
0
0
VERTEX
8
Layer 1
10
1.698210
20
0.184418
70
0
0
VERTEX
8
Layer 1
10
1.697781
20
0.184463
70
0
0
VERTEX
8
Layer 1
10
1.686912
20
0.186564
70
0
0
VERTEX
8
Layer 1
10
1.686568
20
0.186609
70
0
0
VERTEX
8
Layer 1
10
1.583524
20
0.210038
70
0
0
VERTEX
8
Layer 1
10
1.578156
20
0.185558
70
0
0
VERTEX
8
Layer 1
10
1.681242
20
0.162085
70
0
0
VERTEX
8
Layer 1
10
1.748465
20
0.165323
70
0
0
VERTEX
8
Layer 1
10
1.754479
20
0.167995
70
0
0
VERTEX
8
Layer 1
10
1.779048
20
0.192914
70
0
0
VERTEX
8
Layer 1
10
1.780681
20
0.198653
70
0
0
VERTEX
8
Layer 1
10
1.765345
20
0.242052
70
0
0
VERTEX
8
Layer 1
10
1.760363
20
0.247000
70
0
0
VERTEX
8
Layer 1
10
1.715133
20
0.271744
70
0
0
VERTEX
8
Layer 1
10
1.705727
20
0.274197
70
0
0
VERTEX
8
Layer 1
10
1.694987
20
0.276606
70
0
0
VERTEX
8
Layer 1
10
1.655255
20
0.293291
70
0
0
VERTEX
8
Layer 1
10
1.642370
20
0.305466
70
0
0
VERTEX
8
Layer 1
10
1.638806
20
0.322458
70
0
0
VERTEX
8
Layer 1
10
1.665952
20
0.342166
70
0
0
VERTEX
8
Layer 1
10
1.666209
20
0.342209
70
0
0
VERTEX
8
Layer 1
10
1.708820
20
0.339626
70
0
0
VERTEX
8
Layer 1
10
1.812251
20
0.316152
70
0
0
VERTEX
8
Layer 1
10
1.817577
20
0.340589
70
0
0
VERTEX
8
Layer 1
10
1.714146
20
0.364106
70
0
0
VERTEX
8
Layer 1
10
1.714146
20
0.364106
70
0
0
SEQEND
8
Layer 1
0
POLYLINE
8
Layer 1
62
7
70
1
10
0.000000
20
0.000000
66
1
0
VERTEX
8
Layer 1
10
0.654179
20
0.367041
70
0
0
VERTEX
8
Layer 1
10
0.610795
20
0.362661
70
0
0
VERTEX
8
Layer 1
10
0.602334
20
0.361347
70
0
0
VERTEX
8
Layer 1
10
0.557791
20
0.333494
70
0
0
VERTEX
8
Layer 1
10
0.552894
20
0.326925
70
0
0
VERTEX
8
Layer 1
10
0.540310
20
0.275160
70
0
0
VERTEX
8
Layer 1
10
0.544692
20
0.230535
70
0
0
VERTEX
8
Layer 1
10
0.573169
20
0.176930
70
0
0
VERTEX
8
Layer 1
10
0.622093
20
0.158669
70
0
0
VERTEX
8
Layer 1
10
0.630769
20
0.159150
70
0
0
VERTEX
8
Layer 1
10
0.752027
20
0.171498
70
0
0
VERTEX
8
Layer 1
10
0.749580
20
0.196507
70
0
0
VERTEX
8
Layer 1
10
0.627935
20
0.184069
70
0
0
VERTEX
8
Layer 1
10
0.627419
20
0.184024
70
0
0
VERTEX
8
Layer 1
10
0.622995
20
0.183804
70
0
0
VERTEX
8
Layer 1
10
0.622609
20
0.183804
70
0
0
VERTEX
8
Layer 1
10
0.588631
20
0.195935
70
0
0
VERTEX
8
Layer 1
10
0.588374
20
0.196155
70
0
0
VERTEX
8
Layer 1
10
0.569174
20
0.233030
70
0
0
VERTEX
8
Layer 1
10
0.568229
20
0.242883
70
0
0
VERTEX
8
Layer 1
10
0.577852
20
0.243849
70
0
0
VERTEX
8
Layer 1
10
0.743264
20
0.260753
70
0
0
VERTEX
8
Layer 1
10
0.739872
20
0.295569
70
0
0
VERTEX
8
Layer 1
10
0.717750
20
0.343348
70
0
0
VERTEX
8
Layer 1
10
0.711051
20
0.349479
70
0
0
VERTEX
8
Layer 1
10
0.654179
20
0.367041
70
0
0
VERTEX
8
Layer 1
10
0.654179
20
0.367041
70
0
0
SEQEND
8
Layer 1
0
POLYLINE
8
Layer 1
62
7
70
1
10
0.000000
20
0.000000
66
1
0
VERTEX
8
Layer 1
10
1.161247
20
0.341903
70
0
0
VERTEX
8
Layer 1
10
1.248699
20
0.332137
70
0
0
VERTEX
8
Layer 1
10
1.258322
20
0.331042
70
0
0
VERTEX
8
Layer 1
10
1.257248
20
0.321232
70
0
0
VERTEX
8
Layer 1
10
1.242857
20
0.187485
70
0
0
VERTEX
8
Layer 1
10
1.241828
20
0.177674
70
0
0
VERTEX
8
Layer 1
10
1.232205
20
0.178769
70
0
0
VERTEX
8
Layer 1
10
1.144753
20
0.188580
70
0
0
VERTEX
8
Layer 1
10
1.108714
20
0.208461
70
0
0
VERTEX
8
Layer 1
10
1.108500
20
0.208725
70
0
0
VERTEX
8
Layer 1
10
1.096903
20
0.243497
70
0
0
VERTEX
8
Layer 1
10
1.096903
20
0.243978
70
0
0
VERTEX
8
Layer 1
10
1.106568
20
0.243322
70
0
0
VERTEX
8
Layer 1
10
1.116146
20
0.214768
70
0
0
VERTEX
8
Layer 1
10
1.145785
20
0.198388
70
0
0
VERTEX
8
Layer 1
10
1.233237
20
0.188580
70
0
0
VERTEX
8
Layer 1
10
1.247625
20
0.322327
70
0
0
VERTEX
8
Layer 1
10
1.160173
20
0.332093
70
0
0
VERTEX
8
Layer 1
10
1.127700
20
0.322195
70
0
0
VERTEX
8
Layer 1
10
1.124351
20
0.319217
70
0
0
VERTEX
8
Layer 1
10
1.111635
20
0.292415
70
0
0
VERTEX
8
Layer 1
10
1.106867
20
0.247833
70
0
0
VERTEX
8
Layer 1
10
1.097289
20
0.248884
70
0
0
VERTEX
8
Layer 1
10
1.102057
20
0.293510
70
0
0
VERTEX
8
Layer 1
10
1.117649
20
0.326312
70
0
0
VERTEX
8
Layer 1
10
1.117993
20
0.326662
70
0
0
VERTEX
8
Layer 1
10
1.121342
20
0.329640
70
0
0
VERTEX
8
Layer 1
10
1.121644
20
0.329903
70
0
0
VERTEX
8
Layer 1
10
1.161247
20
0.341903
70
0
0
VERTEX
8
Layer 1
10
1.161247
20
0.341903
70
0
0
SEQEND
8
Layer 1
0
POLYLINE
8
Layer 1
62
7
70
1
10
0.000000
20
0.000000
66
1
0
VERTEX
8
Layer 1
10
0.232933
20
0.276387
70
0
0
VERTEX
8
Layer 1
10
0.233664
20
0.272357
70
0
0
VERTEX
8
Layer 1
10
0.231344
20
0.269029
70
0
0
VERTEX
8
Layer 1
10
0.195650
20
0.217134
70
0
0
VERTEX
8
Layer 1
10
0.149861
20
0.183193
70
0
0
VERTEX
8
Layer 1
10
0.149431
20
0.183106
70
0
0
VERTEX
8
Layer 1
10
0.145007
20
0.182534
70
0
0
VERTEX
8
Layer 1
10
0.144578
20
0.182492
70
0
0
VERTEX
8
Layer 1
10
0.114381
20
0.189191
70
0
0
VERTEX
8
Layer 1
10
0.114038
20
0.189411
70
0
0
VERTEX
8
Layer 1
10
0.110172
20
0.191821
70
0
0
VERTEX
8
Layer 1
10
0.109828
20
0.191996
70
0
0
VERTEX
8
Layer 1
10
0.109528
20
0.192258
70
0
0
VERTEX
8
Layer 1
10
0.087750
20
0.227643
70
0
0
VERTEX
8
Layer 1
10
0.080147
20
0.271788
70
0
0
VERTEX
8
Layer 1
10
0.088953
20
0.312342
70
0
0
VERTEX
8
Layer 1
10
0.118505
20
0.333976
70
0
0
VERTEX
8
Layer 1
10
0.118977
20
0.334107
70
0
0
VERTEX
8
Layer 1
10
0.123273
20
0.335071
70
0
0
VERTEX
8
Layer 1
10
0.123702
20
0.335158
70
0
0
VERTEX
8
Layer 1
10
0.219832
20
0.352369
70
0
0
VERTEX
8
Layer 1
10
0.232933
20
0.276387
70
0
0
VERTEX
8
Layer 1
10
0.232933
20
0.276387
70
0
0
SEQEND
8
Layer 1
0
POLYLINE
8
Layer 1
62
7
70
1
10
0.000000
20
0.000000
66
1
0
VERTEX
8
Layer 1
10
1.992572
20
0.249627
70
0
0
VERTEX
8
Layer 1
10
1.992572
20
0.233075
70
0
0
VERTEX
8
Layer 1
10
1.958896
20
0.198740
70
0
0
VERTEX
8
Layer 1
10
1.939782
20
0.186828
70
0
0
VERTEX
8
Layer 1
10
1.933252
20
0.189585
70
0
0
VERTEX
8
Layer 1
10
1.931019
20
0.195806
70
0
0
VERTEX
8
Layer 1
10
1.931019
20
0.240650
70
0
0
VERTEX
8
Layer 1
10
1.933467
20
0.246651
70
0
0
VERTEX
8
Layer 1
10
1.939782
20
0.249627
70
0
0
VERTEX
8
Layer 1
10
1.992572
20
0.249627
70
0
0
VERTEX
8
Layer 1
10
1.992572
20
0.249627
70
0
0
SEQEND
8
Layer 1
0
POLYLINE
8
Layer 1
62
7
70
1
10
0.000000
20
0.000000
66
1
0
VERTEX
8
Layer 1
10
0.125335
20
0.325436
70
0
0
VERTEX
8
Layer 1
10
0.121039
20
0.324473
70
0
0
VERTEX
8
Layer 1
10
0.096856
20
0.306692
70
0
0
VERTEX
8
Layer 1
10
0.089640
20
0.273496
70
0
0
VERTEX
8
Layer 1
10
0.097243
20
0.229352
70
0
0
VERTEX
8
Layer 1
10
0.115197
20
0.200229
70
0
0
VERTEX
8
Layer 1
10
0.119063
20
0.197819
70
0
0
VERTEX
8
Layer 1
10
0.143761
20
0.192345
70
0
0
VERTEX
8
Layer 1
10
0.148186
20
0.192914
70
0
0
VERTEX
8
Layer 1
10
0.187703
20
0.222783
70
0
0
VERTEX
8
Layer 1
10
0.223397
20
0.274679
70
0
0
VERTEX
8
Layer 1
10
0.211972
20
0.340939
70
0
0
VERTEX
8
Layer 1
10
0.125335
20
0.325436
70
0
0
VERTEX
8
Layer 1
10
0.125335
20
0.325436
70
0
0
SEQEND
8
Layer 1
0
POLYLINE
8
Layer 1
62
7
70
1
10
0.000000
20
0.000000
66
1
0
VERTEX
8
Layer 1
10
1.940727
20
0.197076
70
0
0
VERTEX
8
Layer 1
10
1.952067
20
0.205704
70
0
0
VERTEX
8
Layer 1
10
1.982907
20
0.237147
70
0
0
VERTEX
8
Layer 1
10
1.982907
20
0.239774
70
0
0
VERTEX
8
Layer 1
10
1.940727
20
0.239774
70
0
0
VERTEX
8
Layer 1
10
1.940727
20
0.197076
70
0
0
VERTEX
8
Layer 1
10
1.940727
20
0.197076
70
0
0
SEQEND
8
Layer 1
0
POLYLINE
8
Layer 1
62
7
70
1
10
0.000000
20
0.000000
66
1
0
VERTEX
8
Layer 1
10
0.826552
20
0.253482
70
0
0
VERTEX
8
Layer 1
10
0.793307
20
0.210389
70
0
0
VERTEX
8
Layer 1
10
0.793262
20
0.210871
70
0
0
VERTEX
8
Layer 1
10
0.785833
20
0.286196
70
0
0
VERTEX
8
Layer 1
10
0.826552
20
0.253482
70
0
0
VERTEX
8
Layer 1
10
0.826552
20
0.253482
70
0
0
SEQEND
8
Layer 1
0
POLYLINE
8
Layer 1
62
7
70
1
10
0.000000
20
0.000000
66
1
0
VERTEX
8
Layer 1
10
0.474762
20
0.229220
70
0
0
VERTEX
8
Layer 1
10
0.490270
20
0.226024
70
0
0
VERTEX
8
Layer 1
10
0.486015
20
0.269686
70
0
0
VERTEX
8
Layer 1
10
0.485372
20
0.282167
70
0
0
VERTEX
8
Layer 1
10
0.474762
20
0.229220
70
0
0
VERTEX
8
Layer 1
10
0.474762
20
0.229220
70
0
0
SEQEND
8
Layer 1
0
POLYLINE
8
Layer 1
62
7
70
1
10
0.000000
20
0.000000
66
1
0
VERTEX
8
Layer 1
10
0.186200
20
0.283175
70
0
0
VERTEX
8
Layer 1
10
0.158881
20
0.243364
70
0
0
VERTEX
8
Layer 1
10
0.142086
20
0.228257
70
0
0
VERTEX
8
Layer 1
10
0.135429
20
0.229659
70
0
0
VERTEX
8
Layer 1
10
0.131906
20
0.235570
70
0
0
VERTEX
8
Layer 1
10
0.124303
20
0.279715
70
0
0
VERTEX
8
Layer 1
10
0.125678
20
0.286065
70
0
0
VERTEX
8
Layer 1
10
0.131434
20
0.290094
70
0
0
VERTEX
8
Layer 1
10
0.183408
20
0.299422
70
0
0
VERTEX
8
Layer 1
10
0.186200
20
0.283175
70
0
0
VERTEX
8
Layer 1
10
0.186200
20
0.283175
70
0
0
SEQEND
8
Layer 1
0
POLYLINE
8
Layer 1
62
7
70
1
10
0.000000
20
0.000000
66
1
0
VERTEX
8
Layer 1
10
1.156349
20
0.296444
70
0
0
VERTEX
8
Layer 1
10
1.208753
20
0.290620
70
0
0
VERTEX
8
Layer 1
10
1.202053
20
0.228212
70
0
0
VERTEX
8
Layer 1
10
1.149605
20
0.234038
70
0
0
VERTEX
8
Layer 1
10
1.143507
20
0.237366
70
0
0
VERTEX
8
Layer 1
10
1.141832
20
0.243936
70
0
0
VERTEX
8
Layer 1
10
1.146642
20
0.288518
70
0
0
VERTEX
8
Layer 1
10
1.149693
20
0.294211
70
0
0
VERTEX
8
Layer 1
10
1.156349
20
0.296444
70
0
0
VERTEX
8
Layer 1
10
1.156349
20
0.296444
70
0
0
SEQEND
8
Layer 1
0
POLYLINE
8
Layer 1
62
7
70
1
10
0.000000
20
0.000000
66
1
0
VERTEX
8
Layer 1
10
0.800565
20
0.235789
70
0
0
VERTEX
8
Layer 1
10
0.812979
20
0.251863
70
0
0
VERTEX
8
Layer 1
10
0.797773
20
0.264081
70
0
0
VERTEX
8
Layer 1
10
0.800565
20
0.235789
70
0
0
VERTEX
8
Layer 1
10
0.800565
20
0.235789
70
0
0
SEQEND
8
Layer 1
0
POLYLINE
8
Layer 1
62
7
70
1
10
0.000000
20
0.000000
66
1
0
VERTEX
8
Layer 1
10
0.133968
20
0.280547
70
0
0
VERTEX
8
Layer 1
10
0.141227
20
0.238504
70
0
0
VERTEX
8
Layer 1
10
0.150978
20
0.249016
70
0
0
VERTEX
8
Layer 1
10
0.175977
20
0.285540
70
0
0
VERTEX
8
Layer 1
10
0.175547
20
0.287992
70
0
0
VERTEX
8
Layer 1
10
0.133968
20
0.280547
70
0
0
VERTEX
8
Layer 1
10
0.133968
20
0.280547
70
0
0
SEQEND
8
Layer 1
0
POLYLINE
8
Layer 1
62
7
70
1
10
0.000000
20
0.000000
66
1
0
VERTEX
8
Layer 1
10
1.151539
20
0.243759
70
0
0
VERTEX
8
Layer 1
10
1.193505
20
0.239118
70
0
0
VERTEX
8
Layer 1
10
1.198101
20
0.281905
70
0
0
VERTEX
8
Layer 1
10
1.156135
20
0.286547
70
0
0
VERTEX
8
Layer 1
10
1.151539
20
0.243759
70
0
0
VERTEX
8
Layer 1
10
1.151539
20
0.243759
70
0
0
SEQEND
8
Layer 1
0
POLYLINE
8
Layer 1
62
7
70
1
10
0.000000
20
0.000000
66
1
0
VERTEX
8
Layer 1
10
1.106867
20
0.247833
70
0
0
VERTEX
8
Layer 1
10
1.106568
20
0.243322
70
0
0
VERTEX
8
Layer 1
10
1.096903
20
0.243978
70
0
0
VERTEX
8
Layer 1
10
1.097247
20
0.248489
70
0
0
VERTEX
8
Layer 1
10
1.097289
20
0.248884
70
0
0
VERTEX
8
Layer 1
10
1.106867
20
0.247833
70
0
0
VERTEX
8
Layer 1
10
1.106867
20
0.247833
70
0
0
SEQEND
8
Layer 1
0
POLYLINE
8
Layer 1
62
7
70
1
10
0.000000
20
0.000000
66
1
0
VERTEX
8
Layer 1
10
1.811909
20
0.269292
70
0
0
VERTEX
8
Layer 1
10
1.819381
20
0.267628
70
0
0
VERTEX
8
Layer 1
10
1.816849
20
0.246344
70
0
0
VERTEX
8
Layer 1
10
1.798979
20
0.272226
70
0
0
VERTEX
8
Layer 1
10
1.811909
20
0.269292
70
0
0
VERTEX
8
Layer 1
10
1.811909
20
0.269292
70
0
0
SEQEND
8
Layer 1
0
POLYLINE
8
Layer 1
62
7
70
1
10
0.000000
20
0.000000
66
1
0
VERTEX
8
Layer 1
10
1.580174
20
0.277043
70
0
0
VERTEX
8
Layer 1
10
1.596795
20
0.253876
70
0
0
VERTEX
8
Layer 1
10
1.583868
20
0.256811
70
0
0
VERTEX
8
Layer 1
10
1.583008
20
0.257030
70
0
0
VERTEX
8
Layer 1
10
1.580174
20
0.277043
70
0
0
VERTEX
8
Layer 1
10
1.580174
20
0.277043
70
0
0
SEQEND
8
Layer 1
0
POLYLINE
8
Layer 1
62
7
70
1
10
0.000000
20
0.000000
66
1
0
VERTEX
8
Layer 1
10
0.999269
20
0.274372
70
0
0
VERTEX
8
Layer 1
10
1.018684
20
0.258782
70
0
0
VERTEX
8
Layer 1
10
1.023365
20
0.302313
70
0
0
VERTEX
8
Layer 1
10
1.023923
20
0.306254
70
0
0
VERTEX
8
Layer 1
10
0.999269
20
0.274372
70
0
0
VERTEX
8
Layer 1
10
0.999269
20
0.274372
70
0
0
SEQEND
8
Layer 1
0
POLYLINE
8
Layer 1
62
7
70
1
10
0.000000
20
0.000000
66
1
0
VERTEX
8
Layer 1
10
0.656629
20
0.342034
70
0
0
VERTEX
8
Layer 1
10
0.695544
20
0.329728
70
0
0
VERTEX
8
Layer 1
10
0.715387
20
0.293028
70
0
0
VERTEX
8
Layer 1
10
0.716332
20
0.283219
70
0
0
VERTEX
8
Layer 1
10
0.706712
20
0.282255
70
0
0
VERTEX
8
Layer 1
10
0.575402
20
0.268854
70
0
0
VERTEX
8
Layer 1
10
0.565350
20
0.267803
70
0
0
VERTEX
8
Layer 1
10
0.564792
20
0.278094
70
0
0
VERTEX
8
Layer 1
10
0.564535
20
0.282605
70
0
0
VERTEX
8
Layer 1
10
0.564493
20
0.283087
70
0
0
VERTEX
8
Layer 1
10
0.576563
20
0.317466
70
0
0
VERTEX
8
Layer 1
10
0.607575
20
0.336779
70
0
0
VERTEX
8
Layer 1
10
0.608046
20
0.336866
70
0
0
VERTEX
8
Layer 1
10
0.612428
20
0.337523
70
0
0
VERTEX
8
Layer 1
10
0.656629
20
0.342034
70
0
0
VERTEX
8
Layer 1
10
0.656629
20
0.342034
70
0
0
SEQEND
8
Layer 1
0
POLYLINE
8
Layer 1
62
7
70
1
10
0.000000
20
0.000000
66
1
0
VERTEX
8
Layer 1
10
0.657573
20
0.332224
70
0
0
VERTEX
8
Layer 1
10
0.613803
20
0.327757
70
0
0
VERTEX
8
Layer 1
10
0.609422
20
0.327100
70
0
0
VERTEX
8
Layer 1
10
0.584035
20
0.311203
70
0
0
VERTEX
8
Layer 1
10
0.574156
20
0.283175
70
0
0
VERTEX
8
Layer 1
10
0.574415
20
0.278664
70
0
0
VERTEX
8
Layer 1
10
0.705725
20
0.292065
70
0
0
VERTEX
8
Layer 1
10
0.689530
20
0.321976
70
0
0
VERTEX
8
Layer 1
10
0.657573
20
0.332224
70
0
0
VERTEX
8
Layer 1
10
0.657573
20
0.332224
70
0
0
SEQEND
8
Layer 1
0
POLYLINE
8
Layer 1
62
7
70
1
10
0.000000
20
0.000000
66
1
0
VERTEX
8
Layer 1
10
1.861519
20
0.195806
70
0
0
VERTEX
8
Layer 1
10
1.884114
20
0.139180
70
0
0
VERTEX
8
Layer 1
10
1.939782
20
0.116013
70
0
0
VERTEX
8
Layer 1
10
1.993646
20
0.146712
70
0
0
VERTEX
8
Layer 1
10
2.037458
20
0.192083
70
0
0
VERTEX
8
Layer 1
10
2.037458
20
0.115968
70
0
0
VERTEX
8
Layer 1
10
2.062070
20
0.115968
70
0
0
VERTEX
8
Layer 1
10
2.062070
20
0.320487
70
0
0
VERTEX
8
Layer 1
10
1.939825
20
0.320487
70
0
0
VERTEX
8
Layer 1
10
1.931792
20
0.320093
70
0
0
VERTEX
8
Layer 1
10
1.884199
20
0.296926
70
0
0
VERTEX
8
Layer 1
10
1.861519
20
0.240650
70
0
0
VERTEX
8
Layer 1
10
1.861519
20
0.195806
70
0
0
VERTEX
8
Layer 1
10
1.861519
20
0.195806
70
0
0
SEQEND
8
Layer 1
0
POLYLINE
8
Layer 1
62
7
70
1
10
0.000000
20
0.000000
66
1
0
VERTEX
8
Layer 1
10
2.037458
20
0.214154
70
0
0
VERTEX
8
Layer 1
10
1.990638
20
0.166418
70
0
0
VERTEX
8
Layer 1
10
1.939782
20
0.141106
70
0
0
VERTEX
8
Layer 1
10
1.901854
20
0.156872
70
0
0
VERTEX
8
Layer 1
10
1.901595
20
0.157092
70
0
0
VERTEX
8
Layer 1
10
1.886133
20
0.195806
70
0
0
VERTEX
8
Layer 1
10
1.886133
20
0.240650
70
0
0
VERTEX
8
Layer 1
10
1.901725
20
0.279014
70
0
0
VERTEX
8
Layer 1
10
1.939782
20
0.295349
70
0
0
VERTEX
8
Layer 1
10
2.037458
20
0.295349
70
0
0
VERTEX
8
Layer 1
10
2.037458
20
0.214154
70
0
0
VERTEX
8
Layer 1
10
2.037458
20
0.214154
70
0
0
SEQEND
8
Layer 1
0
POLYLINE
8
Layer 1
62
7
70
1
10
0.000000
20
0.000000
66
1
0
VERTEX
8
Layer 1
10
2.116664
20
0.060392
70
0
0
VERTEX
8
Layer 1
10
1.982907
20
0.060392
70
0
0
VERTEX
8
Layer 1
10
1.982907
20
0.070729
70
0
0
VERTEX
8
Layer 1
10
1.939782
20
0.060392
70
0
0
VERTEX
8
Layer 1
10
1.845927
20
0.099503
70
0
0
VERTEX
8
Layer 1
10
1.845800
20
0.099632
70
0
0
VERTEX
8
Layer 1
10
1.845369
20
0.100027
70
0
0
VERTEX
8
Layer 1
10
1.815431
20
0.147456
70
0
0
VERTEX
8
Layer 1
10
1.768698
20
0.113690
70
0
0
VERTEX
8
Layer 1
10
1.768610
20
0.113602
70
0
0
VERTEX
8
Layer 1
10
1.768182
20
0.113428
70
0
0
VERTEX
8
Layer 1
10
1.669344
20
0.107821
70
0
0
VERTEX
8
Layer 1
10
1.556849
20
0.133398
70
0
0
VERTEX
8
Layer 1
10
1.545080
20
0.136113
70
0
0
VERTEX
8
Layer 1
10
1.518106
20
0.123151
70
0
0
VERTEX
8
Layer 1
10
1.471545
20
0.126347
70
0
0
VERTEX
8
Layer 1
10
1.433402
20
0.098976
70
0
0
VERTEX
8
Layer 1
10
1.339375
20
0.123982
70
0
0
VERTEX
8
Layer 1
10
1.318070
20
0.146932
70
0
0
VERTEX
8
Layer 1
10
1.303381
20
0.009767
70
0
0
VERTEX
8
Layer 1
10
1.302349
20
0.000001
70
0
0
VERTEX
8
Layer 1
10
1.292729
20
0.001051
70
0
0
VERTEX
8
Layer 1
10
1.179029
20
0.013751
70
0
0
VERTEX
8
Layer 1
10
1.169409
20
0.014847
70
0
0
VERTEX
8
Layer 1
10
1.170481
20
0.024657
70
0
0
VERTEX
8
Layer 1
10
1.174349
20
0.060305
70
0
0
VERTEX
8
Layer 1
10
1.178945
20
0.103575
70
0
0
VERTEX
8
Layer 1
10
1.136119
20
0.108348
70
0
0
VERTEX
8
Layer 1
10
1.077572
20
0.129983
70
0
0
VERTEX
8
Layer 1
10
1.078176
20
0.124903
70
0
0
VERTEX
8
Layer 1
10
1.068553
20
0.123720
70
0
0
VERTEX
8
Layer 1
10
1.033588
20
0.119516
70
0
0
VERTEX
8
Layer 1
10
0.989948
20
0.114216
70
0
0
VERTEX
8
Layer 1
10
0.954983
20
0.110012
70
0
0
VERTEX
8
Layer 1
10
0.945363
20
0.108874
70
0
0
VERTEX
8
Layer 1
10
0.944244
20
0.118640
70
0
0
VERTEX
8
Layer 1
10
0.940638
20
0.149295
70
0
0
VERTEX
8
Layer 1
10
0.917185
20
0.168128
70
0
0
VERTEX
8
Layer 1
10
0.898714
20
0.144215
70
0
0
VERTEX
8
Layer 1
10
0.902278
20
0.113602
70
0
0
VERTEX
8
Layer 1
10
0.903440
20
0.103794
70
0
0
VERTEX
8
Layer 1
10
0.893817
20
0.102612
70
0
0
VERTEX
8
Layer 1
10
0.858897
20
0.098362
70
0
0
VERTEX
8
Layer 1
10
0.815212
20
0.093108
70
0
0
VERTEX
8
Layer 1
10
0.780292
20
0.088859
70
0
0
VERTEX
8
Layer 1
10
0.770712
20
0.087721
70
0
0
VERTEX
8
Layer 1
10
0.769553
20
0.097487
70
0
0
VERTEX
8
Layer 1
10
0.767232
20
0.117195
70
0
0
VERTEX
8
Layer 1
10
0.635796
20
0.103749
70
0
0
VERTEX
8
Layer 1
10
0.538633
20
0.133925
70
0
0
VERTEX
8
Layer 1
10
0.507793
20
0.170273
70
0
0
VERTEX
8
Layer 1
10
0.491085
20
0.086670
70
0
0
VERTEX
8
Layer 1
10
0.317851
20
0.122799
70
0
0
VERTEX
8
Layer 1
10
0.295817
20
0.127443
70
0
0
VERTEX
8
Layer 1
10
0.293626
20
0.127003
70
0
0
VERTEX
8
Layer 1
10
0.293497
20
0.126961
70
0
0
VERTEX
8
Layer 1
10
0.215537
20
0.113034
70
0
0
VERTEX
8
Layer 1
10
0.206044
20
0.111327
70
0
0
VERTEX
8
Layer 1
10
0.204369
20
0.121048
70
0
0
VERTEX
8
Layer 1
10
0.204240
20
0.121574
70
0
0
VERTEX
8
Layer 1
10
0.163606
20
0.103707
70
0
0
VERTEX
8
Layer 1
10
0.064426
20
0.125691
70
0
0
VERTEX
8
Layer 1
10
0.064211
20
0.125866
70
0
0
VERTEX
8
Layer 1
10
0.063739
20
0.126215
70
0
0
VERTEX
8
Layer 1
10
0.012667
20
0.200404
70
0
0
VERTEX
8
Layer 1
10
0.009789
20
0.213673
70
0
0
VERTEX
8
Layer 1
10
0.002143
20
0.257861
70
0
0
VERTEX
8
Layer 1
10
0.024007
20
0.358764
70
0
0
VERTEX
8
Layer 1
10
0.110043
20
0.414689
70
0
0
VERTEX
8
Layer 1
10
0.284133
20
0.445870
70
0
0
VERTEX
8
Layer 1
10
0.315706
20
0.262459
70
0
0
VERTEX
8
Layer 1
10
0.343797
20
0.256591
70
0
0
VERTEX
8
Layer 1
10
0.369826
20
0.386617
70
0
0
VERTEX
8
Layer 1
10
0.326829
20
0.395551
70
0
0
VERTEX
8
Layer 1
10
0.344611
20
0.484322
70
0
0
VERTEX
8
Layer 1
10
0.351700
20
0.519488
70
0
0
VERTEX
8
Layer 1
10
0.353634
20
0.529167
70
0
0
VERTEX
8
Layer 1
10
0.527682
20
0.492861
70
0
0
VERTEX
8
Layer 1
10
0.525748
20
0.483183
70
0
0
VERTEX
8
Layer 1
10
0.496411
20
0.337129
70
0
0
VERTEX
8
Layer 1
10
0.515569
20
0.368749
70
0
0
VERTEX
8
Layer 1
10
0.604956
20
0.417886
70
0
0
VERTEX
8
Layer 1
10
0.648723
20
0.422353
70
0
0
VERTEX
8
Layer 1
10
0.734244
20
0.400937
70
0
0
VERTEX
8
Layer 1
10
0.734244
20
0.401244
70
0
0
VERTEX
8
Layer 1
10
0.743825
20
0.402426
70
0
0
VERTEX
8
Layer 1
10
0.857392
20
0.416134
70
0
0
VERTEX
8
Layer 1
10
0.867015
20
0.417273
70
0
0
VERTEX
8
Layer 1
10
0.868131
20
0.407463
70
0
0
VERTEX
8
Layer 1
10
0.871653
20
0.376938
70
0
0
VERTEX
8
Layer 1
10
0.895105
20
0.358063
70
0
0
VERTEX
8
Layer 1
10
0.913618
20
0.381974
70
0
0
VERTEX
8
Layer 1
10
0.910054
20
0.412543
70
0
0
VERTEX
8
Layer 1
10
0.908896
20
0.422353
70
0
0
VERTEX
8
Layer 1
10
0.918516
20
0.423535
70
0
0
VERTEX
8
Layer 1
10
1.032085
20
0.437243
70
0
0
VERTEX
8
Layer 1
10
1.041706
20
0.438381
70
0
0
VERTEX
8
Layer 1
10
1.042825
20
0.428615
70
0
0
VERTEX
8
Layer 1
10
1.046989
20
0.393011
70
0
0
VERTEX
8
Layer 1
10
1.049696
20
0.369362
70
0
0
VERTEX
8
Layer 1
10
1.072461
20
0.392967
70
0
0
VERTEX
8
Layer 1
10
1.169880
20
0.422178
70
0
0
VERTEX
8
Layer 1
10
1.336025
20
0.403565
70
0
0
VERTEX
8
Layer 1
10
1.345690
20
0.402470
70
0
0
VERTEX
8
Layer 1
10
1.345603
20
0.401769
70
0
0
VERTEX
8
Layer 1
10
1.371032
20
0.408996
70
0
0
VERTEX
8
Layer 1
10
1.541299
20
0.457695
70
0
0
VERTEX
8
Layer 1
10
1.543879
20
0.448191
70
0
0
VERTEX
8
Layer 1
10
1.568104
20
0.359815
70
0
0
VERTEX
8
Layer 1
10
1.627596
20
0.412674
70
0
0
VERTEX
8
Layer 1
10
1.726044
20
0.418411
70
0
0
VERTEX
8
Layer 1
10
1.882696
20
0.382807
70
0
0
VERTEX
8
Layer 1
10
1.877841
20
0.360603
70
0
0
VERTEX
8
Layer 1
10
1.939782
20
0.376062
70
0
0
VERTEX
8
Layer 1
10
2.116664
20
0.376062
70
0
0
VERTEX
8
Layer 1
10
2.116664
20
0.060392
70
0
0
VERTEX
8
Layer 1
10
2.116664
20
0.060392
70
0
0
SEQEND
8
Layer 1
 0 
ENDSEC
 0 
EOF